<svg width="70" height="72" viewBox="0 0 70 72" fill="none" xmlns="http://www.w3.org/2000/svg">
<g filter="url(#filter0_d_1812_476)">
<rect x="6" y="2" width="58.3313" height="61" rx="12" fill="#F2994A"/>
</g>
<path d="M35.5959 53C35.4927 53 35.3886 52.9769 35.293 52.9317L12.4044 42.4987C12.0513 42.3333 11.9013 41.9182 12.0681 41.57C12.2353 41.2218 12.6571 41.0738 13.0092 41.2387L35.5959 51.5313L57.6834 41.2387C58.0374 41.0743 58.4578 41.2227 58.625 41.57C58.7917 41.9177 58.6412 42.3333 58.2891 42.4987L35.8983 52.9317C35.8028 52.9769 35.6991 53 35.5959 53ZM35.5959 43.671C35.4927 43.671 35.389 43.6488 35.293 43.6041L12.4044 33.172C12.0513 33.0071 11.9013 32.5915 12.0681 32.2438C12.2353 31.8956 12.6552 31.7467 13.0092 31.9116L35.5959 42.2023L57.6834 31.9116C58.0374 31.7472 58.4578 31.8961 58.625 32.2438C58.7917 32.5915 58.6412 33.0076 58.2891 33.172L35.8983 43.6041C35.8018 43.6488 35.6991 43.671 35.5959 43.671ZM35.5959 34.1493C35.4941 34.1493 35.3929 34.1271 35.2987 34.0842L12.6036 23.7064C12.3537 23.5923 12.1937 23.3454 12.1937 23.074C12.1937 22.8026 12.3533 22.5553 12.6036 22.4417L35.2992 12.0643C35.487 11.9786 35.7058 11.9786 35.893 12.0643L58.5906 22.4412C58.84 22.5553 59 22.8022 59 23.0736C59 23.345 58.8414 23.5923 58.5906 23.7059L35.8926 34.0833C35.7985 34.1271 35.6977 34.1493 35.5959 34.1493Z" fill="white"/>
<defs>
<filter id="filter0_d_1812_476" x="0.5" y="-2.38419e-07" width="69.3313" height="72" filterUnits="userSpaceOnUse" color-interpolation-filters="sRGB">
<feFlood flood-opacity="0" result="BackgroundImageFix"/>
<feColorMatrix in="SourceAlpha" type="matrix" values="0 0 0 0 0 0 0 0 0 0 0 0 0 0 0 0 0 0 127 0" result="hardAlpha"/>
<feOffset dy="3.5"/>
<feGaussianBlur stdDeviation="2.75"/>
<feColorMatrix type="matrix" values="0 0 0 0 0 0 0 0 0 0 0 0 0 0 0 0 0 0 0.02 0"/>
<feBlend mode="normal" in2="BackgroundImageFix" result="effect1_dropShadow_1812_476"/>
<feBlend mode="normal" in="SourceGraphic" in2="effect1_dropShadow_1812_476" result="shape"/>
</filter>
</defs>
</svg>
