<svg width="70" height="72" viewBox="0 0 70 72" fill="none" xmlns="http://www.w3.org/2000/svg">
<g filter="url(#filter0_d_1603_397)">
<rect x="6" y="2" width="58.3313" height="61" rx="12" fill="#EF5DA8"/>
</g>
<path fill-rule="evenodd" clip-rule="evenodd" d="M50.1072 11.0083C50.0541 11.0083 49.9832 11.0083 49.9301 11.026L39.0167 12.8863C38.8927 12.9217 38.7687 12.9571 38.6624 13.028C38.5384 13.0988 38.4498 13.1874 38.3789 13.2937C38.2903 13.4 38.2372 13.524 38.2195 13.6658C38.184 13.7898 38.184 13.9138 38.2017 14.0555L45.0935 54.1657C45.1112 54.3075 45.1643 54.4138 45.2352 54.5378C45.3061 54.6441 45.3947 54.7327 45.501 54.8212C45.6072 54.8921 45.7313 54.9453 45.8553 54.963C45.9793 54.9984 46.121 55.0161 46.245 54.9807L57.1761 53.1027C57.3001 53.085 57.4419 53.0319 57.5482 52.9787C57.6545 52.9079 57.7431 52.8193 57.8316 52.713C57.9025 52.6067 57.9557 52.4649 57.9734 52.3409C58.0088 52.2169 58.0088 52.0752 57.9734 51.9512L51.0994 11.8233C51.0639 11.717 51.0462 11.6107 50.9754 11.5044C50.9222 11.3981 50.8336 11.3095 50.745 11.2386C50.6565 11.1677 50.5679 11.0969 50.4439 11.0615C50.3376 11.026 50.2313 11.0083 50.1072 11.0083ZM47.2726 15.0299C47.3966 15.0299 47.5383 15.0477 47.6624 15.1008C47.7687 15.1362 47.875 15.2071 47.9635 15.278C48.0521 15.3666 48.1407 15.4729 48.1939 15.5792C48.2647 15.6855 48.2824 15.8095 48.3002 15.9335C48.3002 16.0575 48.3002 16.1992 48.2647 16.3055C48.2293 16.4296 48.1761 16.5359 48.0876 16.6422C48.0167 16.7485 47.9104 16.837 47.8041 16.8902C47.6978 16.9611 47.5915 16.9965 47.4675 17.0142L43.2687 17.7583C43.1269 17.776 43.0029 17.776 42.8789 17.7583C42.7372 17.7229 42.6132 17.6697 42.4891 17.5988C42.3828 17.528 42.312 17.4217 42.2234 17.3154C42.1525 17.2091 42.1171 17.0673 42.0994 16.9433C42.0639 16.8016 42.0639 16.6776 42.0994 16.5536C42.1171 16.4118 42.188 16.3055 42.2588 16.1815C42.3474 16.0752 42.436 15.9866 42.5423 15.9158C42.6486 15.8626 42.7903 15.8095 42.9143 15.7918L47.1309 15.0477C47.184 15.0299 47.2195 15.0299 47.2726 15.0299ZM47.9104 18.591C48.0344 18.591 48.1584 18.6087 48.2824 18.6618C48.3887 18.6973 48.495 18.7681 48.5836 18.839C48.6899 18.9276 48.7785 19.0339 48.8317 19.1402C48.8848 19.2465 48.9025 19.3705 48.9202 19.4945C48.938 19.6185 48.9202 19.7603 48.8848 19.8843C48.8494 19.9906 48.7962 20.1146 48.7254 20.2032C48.6368 20.3095 48.5482 20.3981 48.4419 20.4512C48.3356 20.5221 48.2116 20.5575 48.0876 20.5752L43.8887 21.3193C43.7647 21.337 43.623 21.337 43.499 21.3193C43.375 21.2839 43.2332 21.2307 43.1269 21.1599C43.0206 21.089 42.9321 20.9827 42.8612 20.8764C42.7903 20.7701 42.7372 20.6284 42.7195 20.5044C42.7017 20.3626 42.684 20.2386 42.7195 20.1146C42.7372 19.9906 42.808 19.8666 42.8966 19.7603C42.9675 19.6362 43.0561 19.5477 43.1624 19.4945C43.2864 19.4236 43.4104 19.3705 43.5521 19.3528L47.7509 18.6087C47.8041 18.6087 47.8395 18.591 47.9104 18.591ZM48.5305 22.1343C48.6545 22.1343 48.7785 22.1697 48.9025 22.2229C49.0265 22.2583 49.1151 22.3292 49.2214 22.4C49.31 22.4886 49.3809 22.5949 49.434 22.7012C49.4872 22.8252 49.5403 22.9315 49.5403 23.0555C49.558 23.1973 49.5403 23.3213 49.5049 23.4453C49.4694 23.5516 49.4163 23.6756 49.3454 23.7642C49.2569 23.8705 49.1683 23.9591 49.062 24.0122C48.9557 24.0831 48.8317 24.1185 48.7076 24.1362L44.5088 24.8803C44.3848 24.898 44.2431 24.8803 44.1013 24.8626C43.9773 24.8272 43.8533 24.7917 43.747 24.7209C43.6407 24.65 43.5521 24.5437 43.4813 24.4197C43.4104 24.3134 43.3573 24.1894 43.3218 24.0654C43.3041 23.9414 43.3041 23.7996 43.3395 23.6756C43.375 23.5516 43.4281 23.4276 43.499 23.3213C43.5698 23.215 43.6761 23.1087 43.8002 23.0378C43.9065 22.9669 44.0305 22.9315 44.1545 22.9138L48.3533 22.1697C48.4065 22.1697 48.4773 22.152 48.5305 22.1343ZM50.3021 43.2878C51.9498 43.2878 53.2785 44.6342 53.2785 46.2642C53.2785 47.8941 51.9498 49.2405 50.3021 49.2405C48.6722 49.2405 47.3258 47.8941 47.3258 46.2642C47.3258 44.6342 48.6722 43.2878 50.3021 43.2878Z" fill="white"/>
<path fill-rule="evenodd" clip-rule="evenodd" d="M15.8258 12.3015C14.7451 12.3015 13.8415 13.2051 13.8415 14.3035V52.3586C13.8415 53.457 14.7451 54.3428 15.8258 54.3428H24.9321C25.2864 54.3428 25.6407 54.2542 25.9419 54.0771C26.2254 54.2542 26.562 54.3428 26.9163 54.3428H36.0226C37.121 54.3428 38.0069 53.4393 38.0069 52.3586V14.3035C38.0069 13.2228 37.121 12.3015 36.0226 12.3015H26.9163C26.562 12.3015 26.2254 12.3901 25.9419 12.5673C25.6407 12.3901 25.2864 12.3015 24.9321 12.3015H15.8258ZM26.934 14.3035H36.0049V52.3408H26.934V14.3035ZM18.2529 15.9157H22.5049C22.6466 15.9157 22.7884 15.9334 22.9124 15.9865C23.0187 16.0397 23.1427 16.1106 23.2313 16.1991C23.3199 16.3054 23.4085 16.4117 23.4439 16.5358C23.497 16.6598 23.5325 16.7838 23.5325 16.9255C23.5325 17.0495 23.497 17.1736 23.4439 17.2976C23.4085 17.4216 23.3199 17.5279 23.2313 17.6342C23.1427 17.7228 23.0187 17.7936 22.9124 17.8468C22.7884 17.8999 22.6466 17.9176 22.5049 17.9176H18.2529C18.1112 17.9176 17.9872 17.8999 17.8809 17.8468C17.7569 17.7936 17.6329 17.7228 17.5443 17.6342C17.4557 17.5279 17.3671 17.4216 17.314 17.2976C17.2608 17.1736 17.2254 17.0495 17.2254 16.9255C17.2254 16.7838 17.2608 16.6598 17.314 16.5358C17.3671 16.4117 17.4557 16.3054 17.5443 16.1991C17.6329 16.1106 17.7569 16.0397 17.8809 15.9865C17.9872 15.9334 18.1112 15.9157 18.2529 15.9157ZM18.2529 19.5299H22.5049C22.6466 19.5299 22.7884 19.5653 22.9124 19.6184C23.0187 19.6539 23.1427 19.7247 23.2313 19.8133C23.3199 19.9019 23.4085 20.0259 23.4439 20.1499C23.497 20.2562 23.5325 20.398 23.5325 20.5397C23.5325 20.6637 23.497 20.8054 23.4439 20.9295C23.4085 21.0535 23.3199 21.1598 23.2313 21.2484C23.1427 21.3369 23.0187 21.4078 22.9124 21.461C22.7884 21.4964 22.6466 21.5318 22.5049 21.5318H18.2529C18.1112 21.5318 17.9872 21.4964 17.8809 21.461C17.7569 21.4078 17.6329 21.3369 17.5443 21.2484C17.4557 21.1598 17.3671 21.0535 17.314 20.9295C17.2608 20.8054 17.2254 20.6637 17.2254 20.5397C17.2254 20.398 17.2608 20.2562 17.314 20.1499C17.3671 20.0259 17.4557 19.9019 17.5443 19.8133C17.6329 19.7247 17.7569 19.6539 17.8809 19.6184C17.9872 19.5653 18.1112 19.5299 18.2529 19.5299ZM18.2529 23.144H22.5049C22.6466 23.144 22.7884 23.1795 22.9124 23.2149C23.0187 23.268 23.1427 23.3389 23.2313 23.4452C23.3199 23.5338 23.4085 23.6401 23.4439 23.7641C23.497 23.8881 23.5325 24.0121 23.5325 24.1361C23.5325 24.2779 23.497 24.4196 23.4439 24.5259C23.4085 24.6499 23.3199 24.7739 23.2313 24.8625C23.1427 24.9511 23.0187 25.022 22.9124 25.0751C22.7884 25.1283 22.6466 25.146 22.5049 25.146H18.2529C18.1112 25.146 17.9872 25.1283 17.8809 25.0751C17.7569 25.022 17.6329 24.9511 17.5443 24.8625C17.4557 24.7739 17.3671 24.6499 17.314 24.5259C17.2608 24.4196 17.2254 24.2779 17.2254 24.1361C17.2254 24.0121 17.2608 23.8881 17.314 23.7641C17.3671 23.6401 17.4557 23.5338 17.5443 23.4452C17.6329 23.3389 17.7569 23.268 17.8809 23.2149C17.9872 23.1795 18.1112 23.144 18.2529 23.144ZM20.3966 43.1814C22.0266 43.1814 23.3553 44.5279 23.3553 46.1578C23.3553 47.7877 22.0266 49.1341 20.3966 49.1341C18.749 49.1341 17.4026 47.7877 17.4026 46.1578C17.4026 44.5279 18.749 43.1814 20.3966 43.1814Z" fill="white"/>
<path fill-rule="evenodd" clip-rule="evenodd" d="M31.4695 43.1814C29.8395 43.1814 28.4931 44.5279 28.4931 46.1578C28.4931 47.7877 29.8395 49.1341 31.4695 49.1341C33.0994 49.1341 34.4458 47.7877 34.4458 46.1578C34.4458 44.5279 33.0994 43.1814 31.4695 43.1814Z" fill="white"/>
<path fill-rule="evenodd" clip-rule="evenodd" d="M29.3435 15.9158C29.2018 15.9158 29.0777 15.9335 28.9537 15.9866C28.8297 16.0398 28.7234 16.1107 28.6171 16.1992C28.5285 16.3055 28.4577 16.4118 28.4045 16.5358C28.3514 16.6599 28.3159 16.7839 28.3159 16.9256C28.3159 17.0496 28.3514 17.1736 28.4045 17.2977C28.4577 17.4217 28.5285 17.528 28.6171 17.6343C28.7234 17.7229 28.8297 17.7937 28.9537 17.8469C29.0777 17.9 29.2018 17.9177 29.3435 17.9177H33.5955C33.7372 17.9177 33.8612 17.9 33.9852 17.8469C34.1092 17.7937 34.2155 17.7229 34.3218 17.6343C34.4104 17.528 34.4813 17.4217 34.5344 17.2977C34.5876 17.1736 34.6053 17.0496 34.6053 16.9256C34.6053 16.7839 34.5876 16.6599 34.5344 16.5358C34.4813 16.4118 34.4104 16.3055 34.3218 16.1992C34.2155 16.1107 34.1092 16.0398 33.9852 15.9866C33.8612 15.9335 33.7372 15.9158 33.5955 15.9158H29.3435Z" fill="white"/>
<path fill-rule="evenodd" clip-rule="evenodd" d="M29.3435 19.5298C29.2018 19.5298 29.0777 19.5475 28.9537 19.6007C28.8297 19.6538 28.7234 19.7247 28.6171 19.8133C28.5285 19.9195 28.4577 20.0258 28.4045 20.1499C28.3514 20.2739 28.3159 20.3979 28.3159 20.5396C28.3159 20.6636 28.3514 20.7877 28.4045 20.9117C28.4577 21.0357 28.5285 21.1597 28.6171 21.2483C28.7234 21.3369 28.8297 21.4077 28.9537 21.4609C29.0777 21.514 29.2018 21.5318 29.3435 21.5318H33.5955C33.7372 21.5318 33.8612 21.514 33.9852 21.4609C34.1092 21.4077 34.2155 21.3369 34.3218 21.2483C34.4104 21.1597 34.4813 21.0357 34.5344 20.9117C34.5876 20.7877 34.6053 20.6636 34.6053 20.5396C34.6053 20.3979 34.5876 20.2739 34.5344 20.1499C34.4813 20.0258 34.4104 19.9195 34.3218 19.8133C34.2155 19.7247 34.1092 19.6538 33.9852 19.6007C33.8612 19.5475 33.7372 19.5298 33.5955 19.5298H29.3435Z" fill="white"/>
<path fill-rule="evenodd" clip-rule="evenodd" d="M29.3435 23.144C29.2018 23.144 29.0777 23.1618 28.9537 23.2149C28.8297 23.2681 28.7234 23.3389 28.6171 23.4275C28.5285 23.5338 28.4577 23.6401 28.4045 23.7641C28.3514 23.8881 28.3159 24.0122 28.3159 24.1539C28.3159 24.2779 28.3514 24.4196 28.4045 24.5259C28.4577 24.6499 28.5285 24.774 28.6171 24.8625C28.7234 24.9511 28.8297 25.022 28.9537 25.0751C29.0777 25.1283 29.2018 25.146 29.3435 25.146H33.5955C33.7372 25.146 33.8612 25.1283 33.9852 25.0751C34.1092 25.022 34.2155 24.9511 34.3218 24.8625C34.4104 24.774 34.4813 24.6499 34.5344 24.5259C34.5876 24.4196 34.6053 24.2779 34.6053 24.1539C34.6053 24.0122 34.5876 23.8881 34.5344 23.7641C34.4813 23.6401 34.4104 23.5338 34.3218 23.4275C34.2155 23.3389 34.1092 23.2681 33.9852 23.2149C33.8612 23.1618 33.7372 23.144 33.5955 23.144H29.3435Z" fill="white"/>
<defs>
<filter id="filter0_d_1603_397" x="0.5" y="-2.38419e-07" width="69.3313" height="72" filterUnits="userSpaceOnUse" color-interpolation-filters="sRGB">
<feFlood flood-opacity="0" result="BackgroundImageFix"/>
<feColorMatrix in="SourceAlpha" type="matrix" values="0 0 0 0 0 0 0 0 0 0 0 0 0 0 0 0 0 0 127 0" result="hardAlpha"/>
<feOffset dy="3.5"/>
<feGaussianBlur stdDeviation="2.75"/>
<feColorMatrix type="matrix" values="0 0 0 0 0 0 0 0 0 0 0 0 0 0 0 0 0 0 0.02 0"/>
<feBlend mode="normal" in2="BackgroundImageFix" result="effect1_dropShadow_1603_397"/>
<feBlend mode="normal" in="SourceGraphic" in2="effect1_dropShadow_1603_397" result="shape"/>
</filter>
</defs>
</svg>
