<svg width="70" height="72" viewBox="0 0 70 72" fill="none" xmlns="http://www.w3.org/2000/svg">
<g filter="url(#filter0_d_1812_475)">
<rect x="6" y="2" width="58.3313" height="61" rx="12" fill="#219653"/>
</g>
<path fill-rule="evenodd" clip-rule="evenodd" d="M24.8064 51.2733V18.0654H15.7198V51.2733H24.8064ZM46.19 18.0654V51.2733H55.2766V18.0654H46.19ZM55.4018 52.48H13.7638C12.8873 52.48 13.0053 53.3381 13.0053 54H57.9911C57.9911 53.5265 58.1389 52.48 57.2326 52.48H55.4018ZM30.2331 51.2733V42.7108C30.2331 38.3121 35.86 35.9932 39.2028 39.1564C40.1653 40.0675 40.7633 41.3256 40.7633 42.7108V51.2733H44.9853V15.7244H26.0117V51.2733H30.2331ZM34.8953 51.2733H31.4378V42.7108C31.4378 40.7626 32.9922 39.2128 34.8953 38.9442V51.2733ZM36.1005 38.9442C38.0036 39.2122 39.558 40.7626 39.558 42.7108V51.2733H36.1005V38.9442ZM32.258 20.6551V23.0431H29.874V20.6551H32.258ZM29.2716 19.4478H32.861C33.1936 19.4478 33.4633 19.718 33.4633 20.0512V23.6465C33.4633 23.9796 33.1936 24.2498 32.861 24.2498H29.2716C28.939 24.2498 28.6693 23.9796 28.6693 23.6465V20.0512C28.6693 19.718 28.939 19.4478 29.2716 19.4478ZM41.1229 20.6551V23.0431H38.7389V20.6551H41.1229ZM38.1365 19.4478H41.7258C42.0584 19.4478 42.3282 19.718 42.3282 20.0512V23.6465C42.3282 23.9796 42.0584 24.2498 41.7258 24.2498H38.1365C37.8039 24.2498 37.5342 23.9796 37.5342 23.6465V20.0512C37.5342 19.718 37.8039 19.4478 38.1365 19.4478ZM32.2586 28.7529V31.1409H29.8746V28.7529H32.2586ZM29.2722 27.5456H32.8615C33.1941 27.5456 33.4639 27.8158 33.4639 28.149V31.7443C33.4639 32.0775 33.1941 32.3476 32.8615 32.3476H29.2722C28.9396 32.3476 28.6698 32.0775 28.6698 31.7443V28.149C28.6698 27.8158 28.9396 27.5456 29.2722 27.5456ZM41.1235 28.7529V31.1409H38.7394V28.7529H41.1235ZM38.1371 27.5456H41.7264C42.059 27.5456 42.3287 27.8158 42.3287 28.149V31.7443C42.3287 32.0775 42.059 32.3476 41.7264 32.3476H38.1371C37.8045 32.3476 37.5347 32.0775 37.5347 31.7443V28.149C37.5347 27.8158 37.8045 27.5456 38.1371 27.5456ZM31.3937 14.5166H39.6049V13.1949H36.1016V11.2705L39.9314 11.2683C40.3645 11.2683 40.5989 10.7505 40.3049 10.4251L39.1415 9.13551C39.5266 8.70841 40.4373 7.85255 40.4373 7.50722C40.4373 7.22709 40.2106 7 39.9309 7H35.8109C35.3029 7 34.9041 7.43428 34.9041 7.9404C34.9041 9.6919 34.8975 11.4434 34.8964 13.1949H31.3931L31.3937 14.5166ZM51.6691 20.6546V23.0426H49.285V20.6546H51.6691ZM48.6821 19.4473H52.2714C52.6041 19.4473 52.8738 19.7175 52.8738 20.0506V23.6459C52.8738 23.9791 52.6041 24.2493 52.2714 24.2493H48.6821C48.3495 24.2493 48.0798 23.9791 48.0798 23.6459V20.0506C48.0798 19.7175 48.3495 19.4473 48.6821 19.4473ZM51.6691 28.7524V31.1404H49.285V28.7524H51.6691ZM48.6821 27.5451H52.2714C52.6041 27.5451 52.8738 27.8153 52.8738 28.1485V31.7437C52.8738 32.0769 52.6041 32.3471 52.2714 32.3471H48.6821C48.3495 32.3471 48.0798 32.0769 48.0798 31.7437V28.1485C48.0798 27.8153 48.3495 27.5451 48.6821 27.5451ZM51.6691 36.6966V39.0846H49.285V36.6966H51.6691ZM48.6821 35.4893H52.2714C52.6041 35.4893 52.8738 35.7595 52.8738 36.0927V39.6879C52.8738 40.0211 52.6041 40.2913 52.2714 40.2913H48.6821C48.3495 40.2913 48.0798 40.0211 48.0798 39.6879V36.0927C48.0798 35.7595 48.3495 35.4893 48.6821 35.4893ZM51.6691 44.627V47.015H49.285V44.627H51.6691ZM48.6821 43.4197H52.2714C52.6041 43.4197 52.8738 43.6899 52.8738 44.023V47.6183C52.8738 47.9515 52.6041 48.2217 52.2714 48.2217H48.6821C48.3495 48.2217 48.0798 47.9515 48.0798 47.6183V44.023C48.0798 43.6899 48.3495 43.4197 48.6821 43.4197ZM21.7124 20.6551V23.0431H19.3284V20.6551H21.7124ZM18.7255 19.4478H22.3148C22.6474 19.4478 22.9171 19.718 22.9171 20.0512V23.6465C22.9171 23.9796 22.6474 24.2498 22.3148 24.2498H18.7255C18.3929 24.2498 18.1231 23.9796 18.1231 23.6465V20.0512C18.1231 19.718 18.3929 19.4478 18.7255 19.4478ZM21.7124 28.7529V31.1409H19.3284V28.7529H21.7124ZM18.7255 27.5456H22.3148C22.6474 27.5456 22.9171 27.8158 22.9171 28.149V31.7443C22.9171 32.0775 22.6474 32.3476 22.3148 32.3476H18.7255C18.3929 32.3476 18.1231 32.0775 18.1231 31.7443V28.149C18.1231 27.8158 18.3929 27.5456 18.7255 27.5456ZM21.7124 36.6971V39.0851H19.3284V36.6971H21.7124ZM18.7255 35.4899H22.3148C22.6474 35.4899 22.9171 35.76 22.9171 36.0932V39.6885C22.9171 40.0217 22.6474 40.2918 22.3148 40.2918H18.7255C18.3929 40.2918 18.1231 40.0217 18.1231 39.6885V36.0932C18.1231 35.76 18.3929 35.4899 18.7255 35.4899ZM21.7124 44.6275V47.0155H19.3284V44.6275H21.7124ZM18.7255 43.4202H22.3148C22.6474 43.4202 22.9171 43.6904 22.9171 44.0236V47.6189C22.9171 47.9521 22.6474 48.2222 22.3148 48.2222H18.7255C18.3929 48.2222 18.1231 47.9521 18.1231 47.6189V44.0236C18.1231 43.6904 18.3929 43.4202 18.7255 43.4202Z" fill="white"/>
<defs>
<filter id="filter0_d_1812_475" x="0.5" y="-2.38419e-07" width="69.3313" height="72" filterUnits="userSpaceOnUse" color-interpolation-filters="sRGB">
<feFlood flood-opacity="0" result="BackgroundImageFix"/>
<feColorMatrix in="SourceAlpha" type="matrix" values="0 0 0 0 0 0 0 0 0 0 0 0 0 0 0 0 0 0 127 0" result="hardAlpha"/>
<feOffset dy="3.5"/>
<feGaussianBlur stdDeviation="2.75"/>
<feColorMatrix type="matrix" values="0 0 0 0 0 0 0 0 0 0 0 0 0 0 0 0 0 0 0.02 0"/>
<feBlend mode="normal" in2="BackgroundImageFix" result="effect1_dropShadow_1812_475"/>
<feBlend mode="normal" in="SourceGraphic" in2="effect1_dropShadow_1812_475" result="shape"/>
</filter>
</defs>
</svg>
